# xmcd CD database file
#
# Track frame offsets:
#	150
#	26892
#	56405
#	73117
#	93145
#	104615
#	134070
#	149337
#	188070
#	212472
#
# Disc length: 3097 seconds
#
# Revision: 0
# Processed by: cddbd v1.4PL0 Copyright (c) Steve Scherf et al.
# Submitted via: CDex 1.50
#
DISCID=950c170a
DTITLE=Lee Oskar - Those Sunny Days
DYEAR=1996
DGENRE=Jazz
TTITLE0=Those Sunny Days
TTITLE1=Georgia On My Mind
TTITLE2=In A Sentimental Mood
TTITLE3=Here, There And Everywhere
TTITLE4=Peg O'My Heart
TTITLE5=When I Fall In Love
TTITLE6=When You Wish Upon A Star
TTITLE7=Somewhere Over The Rainbow
TTITLE8=Coming Home, Baby
TTITLE9=My Love, Beside Me (³»»ç¶û ³»°ç¿¡)
EXTD=YEAR: 1996
EXTT0=
EXTT1=
EXTT2=
EXTT3=
EXTT4=
EXTT5=
EXTT6=
EXTT7=
EXTT8=
EXTT9=
PLAYORDER=
